<mxfile host="app.diagrams.net" modified="2020-11-28T11:04:09.296Z" agent="5.0 (Windows NT 10.0; Win64; x64) AppleWebKit/537.36 (KHTML, like Gecko) Chrome/85.0.4183.102 Safari/537.36" etag="vubT9Qs9p0oYHseVInHJ" version="13.10.4" type="github">
  <diagram id="5oEvy_M0t0l-VAsfpy1e" name="Page-1">
    <mxGraphModel dx="1209" dy="759" grid="1" gridSize="10" guides="1" tooltips="1" connect="1" arrows="1" fold="1" page="1" pageScale="1" pageWidth="827" pageHeight="1169" math="0" shadow="0">
      <root>
        <mxCell id="0" />
        <mxCell id="1" parent="0" />
        <mxCell id="d4Y7aPlsNiJUAEk9VjPL-1" value="" style="rounded=0;whiteSpace=wrap;html=1;fillColor=none;" vertex="1" parent="1">
          <mxGeometry x="149" y="180" width="530" height="220" as="geometry" />
        </mxCell>
        <mxCell id="d4Y7aPlsNiJUAEk9VjPL-2" value="" style="endArrow=classic;html=1;fillColor=#d5e8d4;strokeColor=#82b366;" edge="1" parent="1">
          <mxGeometry width="50" height="50" relative="1" as="geometry">
            <mxPoint x="90" y="290" as="sourcePoint" />
            <mxPoint x="150" y="290" as="targetPoint" />
          </mxGeometry>
        </mxCell>
        <mxCell id="d4Y7aPlsNiJUAEk9VjPL-4" value="$a0 $a1" style="text;html=1;strokeColor=none;fillColor=none;align=center;verticalAlign=middle;whiteSpace=wrap;rounded=0;" vertex="1" parent="1">
          <mxGeometry x="100" y="280" width="40" height="20" as="geometry" />
        </mxCell>
        <mxCell id="d4Y7aPlsNiJUAEk9VjPL-6" value="" style="endArrow=classic;html=1;exitX=0;exitY=0.5;exitDx=0;exitDy=0;entryX=0;entryY=0.5;entryDx=0;entryDy=0;" edge="1" parent="1" source="d4Y7aPlsNiJUAEk9VjPL-1" target="d4Y7aPlsNiJUAEk9VjPL-7">
          <mxGeometry width="50" height="50" relative="1" as="geometry">
            <mxPoint x="80" y="220" as="sourcePoint" />
            <mxPoint x="130" y="170" as="targetPoint" />
          </mxGeometry>
        </mxCell>
        <mxCell id="d4Y7aPlsNiJUAEk9VjPL-7" value="convertToInteger" style="rounded=1;whiteSpace=wrap;html=1;strokeColor=#3333FF;gradientColor=none;" vertex="1" parent="1">
          <mxGeometry x="310" y="260" width="120" height="60" as="geometry" />
        </mxCell>
        <mxCell id="d4Y7aPlsNiJUAEk9VjPL-8" value="exit_code" style="rounded=0;whiteSpace=wrap;html=1;strokeColor=#3333FF;gradientColor=none;" vertex="1" parent="1">
          <mxGeometry x="580" y="270" width="90" height="40" as="geometry" />
        </mxCell>
        <mxCell id="d4Y7aPlsNiJUAEk9VjPL-9" value="" style="endArrow=classic;html=1;entryX=0;entryY=0.5;entryDx=0;entryDy=0;exitX=1;exitY=0.5;exitDx=0;exitDy=0;" edge="1" parent="1" source="d4Y7aPlsNiJUAEk9VjPL-7" target="d4Y7aPlsNiJUAEk9VjPL-8">
          <mxGeometry width="50" height="50" relative="1" as="geometry">
            <mxPoint x="390" y="410" as="sourcePoint" />
            <mxPoint x="440" y="360" as="targetPoint" />
          </mxGeometry>
        </mxCell>
        <mxCell id="d4Y7aPlsNiJUAEk9VjPL-26" value="" style="edgeStyle=orthogonalEdgeStyle;rounded=0;orthogonalLoop=1;jettySize=auto;html=1;strokeColor=#67AB9F;" edge="1" parent="1" source="d4Y7aPlsNiJUAEk9VjPL-10" target="d4Y7aPlsNiJUAEk9VjPL-4">
          <mxGeometry relative="1" as="geometry" />
        </mxCell>
        <mxCell id="d4Y7aPlsNiJUAEk9VjPL-10" value="" style="rounded=0;whiteSpace=wrap;html=1;strokeColor=#3333FF;gradientColor=none;fillColor=none;" vertex="1" parent="1">
          <mxGeometry x="210" y="200" width="350" height="180" as="geometry" />
        </mxCell>
        <mxCell id="d4Y7aPlsNiJUAEk9VjPL-11" value="main loop" style="text;html=1;strokeColor=none;fillColor=none;align=center;verticalAlign=middle;whiteSpace=wrap;rounded=0;" vertex="1" parent="1">
          <mxGeometry x="200" y="210" width="40" height="20" as="geometry" />
        </mxCell>
        <mxCell id="d4Y7aPlsNiJUAEk9VjPL-12" value="BEGIN" style="text;html=1;strokeColor=#6c8ebf;fillColor=#dae8fc;align=center;verticalAlign=middle;whiteSpace=wrap;rounded=0;" vertex="1" parent="1">
          <mxGeometry x="210" y="270" width="40" height="20" as="geometry" />
        </mxCell>
        <mxCell id="d4Y7aPlsNiJUAEk9VjPL-13" value="END" style="text;html=1;strokeColor=#6c8ebf;fillColor=#dae8fc;align=center;verticalAlign=middle;whiteSpace=wrap;rounded=0;" vertex="1" parent="1">
          <mxGeometry x="510" y="270" width="40" height="20" as="geometry" />
        </mxCell>
        <mxCell id="d4Y7aPlsNiJUAEk9VjPL-14" value="" style="endArrow=classic;html=1;entryX=0.5;entryY=0;entryDx=0;entryDy=0;" edge="1" parent="1" target="d4Y7aPlsNiJUAEk9VjPL-13">
          <mxGeometry width="50" height="50" relative="1" as="geometry">
            <mxPoint x="230" y="270" as="sourcePoint" />
            <mxPoint x="250" y="240" as="targetPoint" />
            <Array as="points">
              <mxPoint x="230" y="230" />
              <mxPoint x="370" y="230" />
              <mxPoint x="530" y="230" />
            </Array>
          </mxGeometry>
        </mxCell>
        <mxCell id="d4Y7aPlsNiJUAEk9VjPL-15" value="bgt $t1, $t0, END" style="text;html=1;strokeColor=none;fillColor=none;align=center;verticalAlign=middle;whiteSpace=wrap;rounded=0;" vertex="1" parent="1">
          <mxGeometry x="280" y="210" width="140" height="20" as="geometry" />
        </mxCell>
        <mxCell id="d4Y7aPlsNiJUAEk9VjPL-16" value="" style="endArrow=classic;html=1;exitX=0.5;exitY=1;exitDx=0;exitDy=0;entryX=0.5;entryY=1;entryDx=0;entryDy=0;" edge="1" parent="1" source="d4Y7aPlsNiJUAEk9VjPL-13" target="d4Y7aPlsNiJUAEk9VjPL-12">
          <mxGeometry width="50" height="50" relative="1" as="geometry">
            <mxPoint x="500" y="500" as="sourcePoint" />
            <mxPoint x="550" y="450" as="targetPoint" />
            <Array as="points">
              <mxPoint x="530" y="350" />
              <mxPoint x="380" y="350" />
              <mxPoint x="230" y="350" />
            </Array>
          </mxGeometry>
        </mxCell>
        <mxCell id="d4Y7aPlsNiJUAEk9VjPL-17" value="j BEGIN" style="text;html=1;strokeColor=none;fillColor=none;align=center;verticalAlign=middle;whiteSpace=wrap;rounded=0;" vertex="1" parent="1">
          <mxGeometry x="290" y="350" width="140" height="20" as="geometry" />
        </mxCell>
        <mxCell id="d4Y7aPlsNiJUAEk9VjPL-18" value="" style="endArrow=classic;html=1;exitX=1;exitY=0.5;exitDx=0;exitDy=0;" edge="1" parent="1" source="d4Y7aPlsNiJUAEk9VjPL-8">
          <mxGeometry width="50" height="50" relative="1" as="geometry">
            <mxPoint x="690" y="310" as="sourcePoint" />
            <mxPoint x="750" y="290" as="targetPoint" />
          </mxGeometry>
        </mxCell>
        <mxCell id="d4Y7aPlsNiJUAEk9VjPL-19" value="exit" style="text;html=1;strokeColor=none;fillColor=none;align=center;verticalAlign=middle;whiteSpace=wrap;rounded=0;" vertex="1" parent="1">
          <mxGeometry x="700" y="270" width="40" height="20" as="geometry" />
        </mxCell>
        <mxCell id="d4Y7aPlsNiJUAEk9VjPL-20" value="" style="rounded=1;whiteSpace=wrap;html=1;strokeColor=#3333FF;fillColor=none;gradientColor=none;" vertex="1" parent="1">
          <mxGeometry x="149" y="500" width="531" height="180" as="geometry" />
        </mxCell>
        <mxCell id="d4Y7aPlsNiJUAEk9VjPL-21" value="convertToInteger" style="text;html=1;strokeColor=none;fillColor=none;align=center;verticalAlign=middle;whiteSpace=wrap;rounded=0;" vertex="1" parent="1">
          <mxGeometry x="180" y="510" width="40" height="20" as="geometry" />
        </mxCell>
        <mxCell id="d4Y7aPlsNiJUAEk9VjPL-23" value="" style="endArrow=classic;html=1;entryX=0;entryY=0.5;entryDx=0;entryDy=0;strokeColor=#67AB9F;" edge="1" parent="1" target="d4Y7aPlsNiJUAEk9VjPL-20">
          <mxGeometry width="50" height="50" relative="1" as="geometry">
            <mxPoint x="100" y="590" as="sourcePoint" />
            <mxPoint x="140" y="560" as="targetPoint" />
          </mxGeometry>
        </mxCell>
        <mxCell id="d4Y7aPlsNiJUAEk9VjPL-24" value="$a0 $a1" style="text;html=1;strokeColor=none;fillColor=none;align=center;verticalAlign=middle;whiteSpace=wrap;rounded=0;" vertex="1" parent="1">
          <mxGeometry x="100" y="560" width="40" height="20" as="geometry" />
        </mxCell>
        <mxCell id="d4Y7aPlsNiJUAEk9VjPL-27" value="" style="endArrow=classic;html=1;strokeColor=#67AB9F;exitX=0;exitY=0.5;exitDx=0;exitDy=0;entryX=1;entryY=0.5;entryDx=0;entryDy=0;" edge="1" parent="1" source="d4Y7aPlsNiJUAEk9VjPL-20" target="d4Y7aPlsNiJUAEk9VjPL-20">
          <mxGeometry width="50" height="50" relative="1" as="geometry">
            <mxPoint x="150" y="620" as="sourcePoint" />
            <mxPoint x="200" y="570" as="targetPoint" />
          </mxGeometry>
        </mxCell>
        <mxCell id="d4Y7aPlsNiJUAEk9VjPL-28" value="Char1" style="text;html=1;strokeColor=none;fillColor=none;align=center;verticalAlign=middle;whiteSpace=wrap;rounded=0;" vertex="1" parent="1">
          <mxGeometry x="220" y="565" width="40" height="20" as="geometry" />
        </mxCell>
        <mxCell id="d4Y7aPlsNiJUAEk9VjPL-29" value="Number1" style="text;html=1;strokeColor=none;fillColor=none;align=center;verticalAlign=middle;whiteSpace=wrap;rounded=0;" vertex="1" parent="1">
          <mxGeometry x="290" y="565" width="40" height="20" as="geometry" />
        </mxCell>
        <mxCell id="d4Y7aPlsNiJUAEk9VjPL-30" value="Char2" style="text;html=1;strokeColor=none;fillColor=none;align=center;verticalAlign=middle;whiteSpace=wrap;rounded=0;" vertex="1" parent="1">
          <mxGeometry x="440" y="565" width="40" height="20" as="geometry" />
        </mxCell>
        <mxCell id="d4Y7aPlsNiJUAEk9VjPL-31" value="Number2" style="text;html=1;strokeColor=none;fillColor=none;align=center;verticalAlign=middle;whiteSpace=wrap;rounded=0;" vertex="1" parent="1">
          <mxGeometry x="560" y="565" width="40" height="20" as="geometry" />
        </mxCell>
        <mxCell id="d4Y7aPlsNiJUAEk9VjPL-33" value="" style="endArrow=classic;html=1;strokeColor=#67AB9F;exitX=0.5;exitY=0;exitDx=0;exitDy=0;entryX=0.25;entryY=0;entryDx=0;entryDy=0;" edge="1" parent="1" source="d4Y7aPlsNiJUAEk9VjPL-28" target="d4Y7aPlsNiJUAEk9VjPL-34">
          <mxGeometry width="50" height="50" relative="1" as="geometry">
            <mxPoint x="40" y="740" as="sourcePoint" />
            <mxPoint x="90" y="690" as="targetPoint" />
            <Array as="points">
              <mxPoint x="240" y="530" />
              <mxPoint x="310" y="530" />
              <mxPoint x="375" y="530" />
            </Array>
          </mxGeometry>
        </mxCell>
        <mxCell id="d4Y7aPlsNiJUAEk9VjPL-34" value="Final1" style="text;html=1;strokeColor=none;fillColor=none;align=center;verticalAlign=middle;whiteSpace=wrap;rounded=0;" vertex="1" parent="1">
          <mxGeometry x="365" y="565" width="40" height="20" as="geometry" />
        </mxCell>
        <mxCell id="d4Y7aPlsNiJUAEk9VjPL-35" value="Final2" style="text;html=1;strokeColor=none;fillColor=none;align=center;verticalAlign=middle;whiteSpace=wrap;rounded=0;" vertex="1" parent="1">
          <mxGeometry x="630" y="565" width="40" height="20" as="geometry" />
        </mxCell>
        <mxCell id="d4Y7aPlsNiJUAEk9VjPL-36" value="" style="endArrow=classic;html=1;strokeColor=#67AB9F;exitX=0.5;exitY=1;exitDx=0;exitDy=0;entryX=0.5;entryY=1;entryDx=0;entryDy=0;" edge="1" parent="1" source="d4Y7aPlsNiJUAEk9VjPL-29" target="d4Y7aPlsNiJUAEk9VjPL-34">
          <mxGeometry width="50" height="50" relative="1" as="geometry">
            <mxPoint x="270" y="790" as="sourcePoint" />
            <mxPoint x="320" y="740" as="targetPoint" />
            <Array as="points">
              <mxPoint x="310" y="620" />
              <mxPoint x="350" y="620" />
              <mxPoint x="385" y="620" />
            </Array>
          </mxGeometry>
        </mxCell>
        <mxCell id="d4Y7aPlsNiJUAEk9VjPL-37" value="" style="endArrow=classic;html=1;strokeColor=#67AB9F;exitX=0.25;exitY=1;exitDx=0;exitDy=0;entryX=0.5;entryY=1;entryDx=0;entryDy=0;" edge="1" parent="1" source="d4Y7aPlsNiJUAEk9VjPL-31" target="d4Y7aPlsNiJUAEk9VjPL-35">
          <mxGeometry width="50" height="50" relative="1" as="geometry">
            <mxPoint x="320" y="595" as="sourcePoint" />
            <mxPoint x="395" y="595" as="targetPoint" />
            <Array as="points">
              <mxPoint x="570" y="630" />
              <mxPoint x="650" y="630" />
            </Array>
          </mxGeometry>
        </mxCell>
        <mxCell id="d4Y7aPlsNiJUAEk9VjPL-38" value="" style="endArrow=classic;html=1;strokeColor=#67AB9F;exitX=0.065;exitY=1.183;exitDx=0;exitDy=0;exitPerimeter=0;" edge="1" parent="1" source="d4Y7aPlsNiJUAEk9VjPL-41">
          <mxGeometry width="50" height="50" relative="1" as="geometry">
            <mxPoint x="490" y="565" as="sourcePoint" />
            <mxPoint x="581" y="565" as="targetPoint" />
            <Array as="points">
              <mxPoint x="452" y="540" />
              <mxPoint x="580" y="540" />
            </Array>
          </mxGeometry>
        </mxCell>
        <mxCell id="d4Y7aPlsNiJUAEk9VjPL-39" value="ble $a0, 57, Number1" style="text;html=1;strokeColor=none;fillColor=none;align=center;verticalAlign=middle;whiteSpace=wrap;rounded=0;" vertex="1" parent="1">
          <mxGeometry x="225" y="540" width="170" height="20" as="geometry" />
        </mxCell>
        <mxCell id="d4Y7aPlsNiJUAEk9VjPL-41" value="ble $a0, 57, Number1" style="text;html=1;strokeColor=none;fillColor=none;align=center;verticalAlign=middle;whiteSpace=wrap;rounded=0;" vertex="1" parent="1">
          <mxGeometry x="440" y="545" width="190" height="20" as="geometry" />
        </mxCell>
        <mxCell id="d4Y7aPlsNiJUAEk9VjPL-42" value="Text" style="text;html=1;strokeColor=none;fillColor=none;align=center;verticalAlign=middle;whiteSpace=wrap;rounded=0;" vertex="1" parent="1">
          <mxGeometry x="390" y="420" width="40" height="20" as="geometry" />
        </mxCell>
        <mxCell id="d4Y7aPlsNiJUAEk9VjPL-43" value="j Final1" style="text;html=1;strokeColor=none;fillColor=none;align=center;verticalAlign=middle;whiteSpace=wrap;rounded=0;" vertex="1" parent="1">
          <mxGeometry x="315" y="620" width="50" height="20" as="geometry" />
        </mxCell>
        <mxCell id="d4Y7aPlsNiJUAEk9VjPL-44" value="j Final2" style="text;html=1;strokeColor=none;fillColor=none;align=center;verticalAlign=middle;whiteSpace=wrap;rounded=0;" vertex="1" parent="1">
          <mxGeometry x="580" y="610" width="50" height="20" as="geometry" />
        </mxCell>
      </root>
    </mxGraphModel>
  </diagram>
</mxfile>
